<?xml version="1.0" standalone="no"?>
<!DOCTYPE svg PUBLIC "-//W3C//DTD SVG 20010904//EN"
 "http://www.w3.org/TR/2001/REC-SVG-20010904/DTD/svg10.dtd">
<svg version="1.0" xmlns="http://www.w3.org/2000/svg"
 width="143.000000pt" height="143.000000pt" viewBox="0 0 143.000000 143.000000"
 preserveAspectRatio="xMidYMid meet">
<metadata>
Created by potrace 1.14, written by Peter Selinger 2001-2017
</metadata>
<g transform="translate(0.000000,143.000000) scale(0.100000,-0.100000)"
fill="#000000" stroke="none">
<path d="M529 1114 c-17 -21 0 -49 32 -50 13 -1 59 -18 102 -38 43 -20 84 -36
91 -36 7 0 20 16 30 37 15 32 16 38 2 51 -13 14 -16 12 -27 -11 -7 -15 -16
-27 -20 -27 -19 0 -136 55 -152 72 -22 22 -40 23 -58 2z m44 -19 c1 -5 -6 -11
-15 -13 -11 -2 -18 3 -18 13 0 17 30 18 33 0z"/>
<path d="M847 1118 c-9 -5 -17 -20 -17 -32 0 -13 -16 -63 -36 -111 -33 -77
-35 -88 -22 -102 18 -18 79 -23 85 -7 2 6 -10 17 -27 24 -20 8 -27 17 -22 24
5 6 21 41 36 79 16 37 32 67 36 67 12 0 20 28 14 44 -8 20 -27 26 -47 14z m33
-22 c0 -18 -16 -29 -30 -21 -13 8 -1 35 16 35 8 0 14 -6 14 -14z"/>
<path d="M657 1113 c-4 -3 -7 -10 -7 -15 0 -11 82 -48 92 -42 19 12 5 33 -32
48 -46 18 -45 18 -53 9z"/>
<path d="M566 1023 c-13 -13 -5 -30 19 -41 l25 -12 -25 -56 c-14 -31 -25 -61
-25 -67 0 -6 -9 -21 -21 -33 -29 -31 -18 -66 19 -62 23 3 27 8 30 38 2 19 12
55 24 80 11 25 27 62 34 82 12 34 11 39 -6 48 -35 19 -68 29 -74 23z m7 -230
c9 -9 -13 -34 -24 -27 -14 8 -11 34 4 34 8 0 17 -3 20 -7z"/>
<path d="M840 954 c-24 -55 -24 -51 -5 -58 10 -4 21 7 35 34 24 47 25 56 5 64
-12 4 -21 -7 -35 -40z"/>
<path d="M541 937 c-10 -23 -17 -45 -14 -49 11 -19 34 -5 48 28 19 45 19 50 0
58 -12 4 -21 -6 -34 -37z"/>
<path d="M635 854 c-8 -20 -15 -43 -15 -50 0 -24 30 -15 40 11 5 14 12 25 14
25 15 0 134 -56 152 -72 26 -23 51 -23 63 0 13 25 -1 44 -37 48 -17 2 -54 14
-84 27 -65 29 -107 47 -113 47 -3 0 -12 -16 -20 -36z m241 -65 c8 -14 -18 -31
-30 -19 -9 9 0 30 14 30 5 0 12 -5 16 -11z"/>
<path d="M670 805 c0 -9 19 -24 43 -34 38 -17 43 -17 48 -2 5 11 -3 21 -25 33
-39 22 -66 23 -66 3z"/>
<path d="M592 650 c-76 -46 -19 -174 65 -144 24 8 28 15 28 49 0 37 -2 40 -29
40 -16 0 -31 -6 -33 -12 -3 -7 2 -13 10 -13 8 0 17 -7 21 -15 10 -28 -43 -18
-56 10 -10 22 -9 29 9 46 17 17 25 19 41 10 15 -8 23 -7 31 3 26 31 -45 52
-87 26z"/>
<path d="M1038 662 c-43 -2 -58 -7 -58 -17 0 -10 10 -15 29 -15 28 0 28 -1 30
-57 1 -54 13 -84 27 -70 3 3 7 33 7 66 1 60 2 61 29 61 17 0 28 5 28 14 0 18
-21 22 -92 18z"/>
<path d="M104 646 c-3 -7 -4 -42 -2 -77 2 -49 7 -64 18 -64 9 0 16 11 18 30
l4 30 27 -34 c16 -20 33 -31 39 -27 17 11 15 21 -13 54 l-24 29 24 21 c26 23
33 52 13 52 -7 0 -25 -12 -40 -27 l-28 -27 0 27 c0 29 -26 38 -36 13z"/>
<path d="M297 654 c-3 -4 -20 -36 -37 -71 -24 -49 -29 -68 -20 -77 9 -8 16 -5
30 12 10 12 28 22 40 22 12 0 30 -10 40 -22 14 -17 22 -20 30 -12 8 8 2 29
-22 79 -32 66 -47 83 -61 69z m18 -74 c3 -5 1 -10 -4 -10 -6 0 -11 5 -11 10 0
6 2 10 4 10 3 0 8 -4 11 -10z"/>
<path d="M402 583 c2 -61 6 -78 18 -78 10 0 16 13 18 40 l4 40 37 -44 c23 -26
42 -41 49 -37 8 4 12 36 12 82 0 67 -2 74 -19 74 -16 0 -20 -8 -23 -42 l-3
-43 -30 42 c-16 24 -38 43 -48 43 -16 0 -18 -9 -15 -77z"/>
<path d="M710 587 c0 -40 3 -76 6 -80 13 -13 34 7 34 31 l0 26 28 -34 c17 -20
33 -30 40 -26 17 11 15 21 -13 54 l-24 29 24 23 c14 13 25 29 25 37 0 21 -25
15 -51 -13 l-24 -26 -5 24 c-3 12 -14 24 -23 26 -15 3 -17 -6 -17 -71z"/>
<path d="M849 623 c-2 -21 -2 -56 1 -78 l5 -40 55 0 c44 0 55 3 58 18 3 14 -4
17 -37 17 -29 0 -41 4 -41 14 0 8 7 12 18 10 22 -5 47 11 38 25 -4 6 -18 11
-32 11 -13 0 -24 5 -24 10 0 6 18 10 40 10 33 0 40 3 40 20 0 18 -7 20 -59 20
l-59 0 -3 -37z"/>
<path d="M1145 648 c-2 -7 -3 -42 -2 -78 2 -50 5 -65 17 -65 12 0 16 17 18 78
2 65 0 77 -13 77 -9 0 -17 -6 -20 -12z"/>
<path d="M1199 623 c-6 -62 4 -118 21 -118 9 0 15 9 14 23 -1 28 4 28 37 -4
15 -14 32 -23 38 -20 16 10 14 18 -15 49 l-26 29 27 28 c25 27 27 50 3 50 -5
0 -20 -12 -31 -27 l-21 -27 -6 25 c-3 13 -13 25 -22 27 -12 2 -17 -7 -19 -35z"/>
<path d="M74 446 c-3 -7 -4 -42 -2 -77 3 -62 4 -64 32 -67 86 -10 139 78 80
133 -30 28 -101 35 -110 11z m90 -48 c14 -23 -3 -52 -33 -56 -19 -3 -21 1 -21
38 0 37 2 41 21 38 12 -2 27 -11 33 -20z"/>
<path d="M227 453 c-2 -4 -4 -39 -3 -78 l1 -70 54 -3 c36 -2 57 1 62 9 12 21
0 29 -42 29 -21 0 -39 5 -39 10 0 6 14 10 30 10 23 0 30 4 30 20 0 16 -7 20
-30 20 -46 0 -36 18 13 22 29 2 42 8 42 18 0 11 -14 16 -57 18 -31 2 -58 -1
-61 -5z"/>
<path d="M364 446 c-7 -17 55 -138 73 -144 16 -5 84 130 73 147 -12 20 -29 4
-52 -48 l-20 -46 -26 53 c-27 53 -39 63 -48 38z"/>
<path d="M534 446 c-3 -7 -4 -42 -2 -77 l3 -64 58 -3 c52 -3 57 -1 57 18 0 17
-6 20 -47 20 -48 0 -50 15 -3 22 38 5 32 32 -8 36 -45 4 -30 22 19 22 32 0 39
3 39 20 0 18 -7 20 -55 20 -38 0 -57 -4 -61 -14z"/>
<path d="M669 458 c-3 -12 -4 -136 -1 -145 6 -20 112 -17 112 2 0 13 -31 21
-62 16 -5 0 -9 7 -9 16 -4 53 -6 89 -8 101 -1 10 -29 18 -32 10z"/>
<path d="M832 453 c-17 -6 -42 -57 -42 -83 0 -32 44 -70 80 -70 54 0 81 42 71
112 -1 4 -11 16 -23 28 -21 19 -57 25 -86 13z m72 -55 c15 -25 -3 -52 -37 -56
-21 -3 -28 2 -33 22 -12 49 43 76 70 34z"/>
<path d="M962 383 c2 -60 6 -78 18 -78 8 0 17 9 20 20 3 12 15 21 29 23 35 3
51 20 51 52 0 38 -29 60 -78 60 l-42 0 2 -77z m83 28 c3 -6 -3 -15 -14 -20
-27 -15 -31 -14 -31 9 0 21 33 29 45 11z"/>
<path d="M1099 443 c-1 -10 -1 -45 -2 -78 l0 -60 59 0 c48 0 59 3 62 18 3 14
-4 17 -37 17 -23 0 -41 5 -41 10 0 6 11 10 23 10 29 0 37 7 30 26 -3 8 -18 14
-35 14 -17 0 -27 4 -23 10 3 6 24 10 46 10 32 0 39 3 39 20 0 18 -7 20 -60 20
-50 0 -60 -3 -61 -17z"/>
<path d="M1239 458 c-4 -9 -5 -135 -1 -145 7 -20 32 -15 32 6 0 30 23 31 47 2
27 -32 49 -19 34 20 -5 16 -5 31 0 42 10 17 -4 55 -25 69 -10 7 -85 11 -87 6z
m77 -49 c7 -12 -12 -29 -33 -29 -7 0 -13 9 -13 20 0 22 34 28 46 9z"/>
</g>
</svg>
